<svg width="1024" height="1024" viewBox="0 0 1024 1024" xmlns="http://www.w3.org/2000/svg"><defs><linearGradient id="bg" x1="0" y1="0" x2="1" y2="1"><stop offset="0%" stop-color="#031417"/><stop offset="100%" stop-color="#12343A"/></linearGradient><linearGradient id="accent" x1="0" y1="0" x2="1" y2="1"><stop offset="0%" stop-color="#2DD4BF"/><stop offset="100%" stop-color="#0D9488"/></linearGradient></defs><rect x="64" y="64" width="896" height="896" rx="220" fill="url(#bg)"/><g transform="translate(512 530) scale(0.72) translate(-512 -512)"><path fill="#FFFFFF" d="M438.955 543.289v-53.476h54.461V211.361c-6.466-19.304-35.157-59.107-49.209-70.049-13.956-10.809-30.473-18.963-48.886-24.804-4.684-1.479-12.914-2.711-23.23-3.413a371.864 371.864 0 0 0-34.247-0.569l-4.153 0.152-2.503-54.291 5.177-0.19a423.614 423.614 0 0 1 39.443 0.683c14.298 0.967 26.32 2.769 35.992 5.879 24.083 7.604 46.288 18.583 65.744 33.64 12.497 9.728 28.824 28.937 42.496 49.436 14.09-20.423 31.062-39.367 45.246-49.114 23.192-16.118 44.316-27.553 64.474-33.944 9.766-3.128 21.807-4.93 36.124-5.878a423.443 423.443 0 0 1 39.368-0.683l5.195 0.19-2.522 54.272-4.134-0.133a371.674 371.674 0 0 0-34.209 0.55c-10.316 0.702-18.546 1.934-23.286 3.451-14.241 4.514-30.91 13.521-50.1 26.852-15.114 10.41-41.207 45.833-49.171 67.262V489.85h54.253v53.476h-54.253V770.18c7.964 21.428 34.057 56.775 49.303 67.242 19.058 13.274 35.65 22.263 50.1 26.757 4.665 1.517 12.876 2.73 23.173 3.451 11.131 0.759 23.23 0.854 34.228 0.57l4.096-0.152 2.522 54.29-5.158 0.19c-12.572 0.323-26.263 0.209-39.424-0.701-14.336-0.968-26.377-2.788-35.858-5.841-20.348-6.334-41.53-17.787-64.607-33.868-14.26-9.785-31.29-28.748-45.379-49.19-13.653 20.442-29.961 39.633-42.496 49.437-19.437 15.094-41.7 26.093-65.593 33.583-9.747 3.148-21.807 4.95-36.124 5.935a420.788 420.788 0 0 1-39.48 0.683c-4.059-0.114-4.059-0.114-5.14-0.17l2.503-54.273 4.096 0.133c10.999 0.285 23.135 0.19 34.285-0.569 10.297-0.72 18.527-1.953 23.382-3.508 18.261-5.746 34.778-13.9 48.64-24.652 14.203-11.131 42.856-50.858 48.545-70.39l0.777-225.83h-54.461z"/></g><rect x="708" y="712" width="150" height="114" rx="28" fill="url(#accent)"/><text x="783" y="788" text-anchor="middle" font-family="SF Pro Display, Helvetica, Arial, sans-serif" font-size="66" font-weight="700" fill="#FFFFFF">⌘</text></svg>
